<svg xmlns="http://www.w3.org/2000/svg" width="40" height="40" viewBox="0 0 577 194.68" preserveAspectRatio="xMidYMid meet">
  <g fill="#000000">
    <path d="M81.4 154.59c-24.04 0-39.42-19.96-39.42-42.53 0-22.08 14.88-42.53 38.77-42.53 19.14 0 33.53 10.47 36.64 29.77H99.39c-1.96-10.47-8.67-16.52-18.32-16.52-13.25 0-20.28 12.27-20.28 29.28 0 17.18 7.52 29.28 21.1 29.28 9.49 0 16.36-6.38 18.16-16.85h18.16c-3.11 19.31-17.67 30.1-36.81 30.1z"/>
    <path d="M134.24 152.96V40.09h17.34V87.2h.33c3.43-11.45 11.94-17.67 23.88-17.67 17.99 0 26.83 12.27 26.83 30.26v53.16h-17.83v-47.93c0-15.21-5.4-22.08-16.36-22.08-10.96 0-16.36 7.52-16.36 20.94v49.07h-17.83z"/>
    <path d="M247.6 154.59c-17.01 0-28.95-10.63-28.95-25.52 0-16.85 14.72-23.06 32.88-25.03l20.78-2.13v-2.45c0-10.96-6.22-16.69-16.52-16.69-9.98 0-15.86 5.07-16.36 14.23H221.6c.65-15.87 13.41-27.48 34.51-27.48 20.78 0 34.02 11.12 34.02 33.21v50.22h-17.18v-16.03h-.49c-3.43 11.29-12.59 17.67-24.86 17.67zm4.58-13.25c12.76 0 20.12-8.67 20.12-24.21v-2.78l-17.83 1.96c-10.8 1.14-17.01 5.07-17.01 12.92 0 7.7 6.87 12.11 14.72 12.11z"/>
    <path d="M311.24 40.09h17.83v112.86h-17.83z"/>
    <path d="M368.81 110.26v42.69h-17.83V40.09h17.83v64.78l33.69-33.7h22.08l-35.82 35.99 37.46 45.8h-22.41l-35-42.69z"/>
    <path d="M453.49 71.17h81.79v81.79h-81.79z"/>
  </g>
</svg>
